#format: frame checksums
#version: 2
#hash: MD5
#tb 0: 1001/30000
#media_type 0: video
#codec_id 0: rawvideo
#dimensions 0: 200x226
#sar 0: 1/1
#stream#, dts,        pts, duration,     size, hash
0,          0,          0,        1,    67800, e45b6b9dce4a8509b7d26bc3cfdf7c86
0,          1,          1,        1,    67800, ddb9d5033ecfa2d6e9a5505dce374bda
0,          2,          2,        1,    67800, 52c495d3137143e0bce9382fe5506057
0,          3,          3,        1,    67800, d09f3d6ad084f2966196acd48246f951
0,          4,          4,        1,    67800, 1556d006d0119a3172b98a500b27f8d0
0,          5,          5,        1,    67800, 904f86cfbcc3fa683d3d7744a286cd88
0,          6,          6,        1,    67800, b35907456b8ccab0ae8efc8405b04c89
0,          7,          7,        1,    67800, b7f2648fe0f873f7e9ea4a6d913e45ec
0,          8,          8,        1,    67800, 2da76544bc7e295486c335e17047e12e
0,          9,          9,        1,    67800, 10fd6424caf837d37564ef15f1c6f93d
